<?xml version="1.0" encoding="UTF-8"?>
<svg width="24px" height="24px" viewBox="0 0 24 24" version="1.1" xmlns="http://www.w3.org/2000/svg" xmlns:xlink="http://www.w3.org/1999/xlink">
    <!-- Generator: Sketch 46.2 (44496) - http://www.bohemiancoding.com/sketch -->
    <title>social-reddit</title>
    <desc>Created with Sketch.</desc>
    <defs></defs>
    <g id="Page-1" stroke="none" stroke-width="1" fill="none" fill-rule="evenodd">
        <g id="social-reddit" fill="#FFFFFF">
            <path d="M11.9462222,21.9835556 C6.08355556,21.9835556 1.31422222,18.8013333 1.31422222,14.8897778 C1.31422222,14.6195556 1.33688889,14.352 1.38133333,14.0893333 C0.586024989,13.5982497 0.101829518,12.7302633 0.101777778,11.7955556 C0.103491705,10.3087072 1.30826301,9.10373704 2.79511111,9.10177778 C3.45866667,9.10177778 4.09111111,9.34444444 4.58044444,9.77822222 C6.42444444,8.59466667 8.90488889,7.84977778 11.6413333,7.79822222 L13.4377778,2.31555556 L13.8297778,2.408 L13.8391111,2.41022222 L18.0262222,3.396 C18.3753997,2.57850323 19.1781653,2.04775495 20.0671111,2.04666667 C21.2915201,2.04813652 22.2836644,3.04047963 22.2848889,4.26488889 C22.2834195,5.48912458 21.2913468,6.48119729 20.0671111,6.48266667 C18.8438132,6.48144511 17.8520267,5.49085112 17.8493333,4.26755556 L14.0288889,3.368 L12.5742222,7.808 C15.2111111,7.91066667 17.5924444,8.65777778 19.3702222,9.81555556 C19.8668561,9.35568186 20.5191491,9.10083028 21.196,9.10222222 C22.6830217,9.10393665 23.8880633,10.3089783 23.8897778,11.796 C23.8941885,12.7689564 23.3699857,13.6675898 22.5208889,14.1426667 C22.5595556,14.3884444 22.5795556,14.6373333 22.5795556,14.8897778 C22.5786667,18.8013333 17.8088889,21.9835556 11.9462222,21.9835556 L11.9462222,21.9835556 Z M2.292,14.0488889 C2.23290811,14.3252835 2.20311388,14.6071369 2.20311111,14.8897778 C2.20311111,18.3115556 6.57377778,21.0946667 11.9462222,21.0946667 C17.3186667,21.0946667 21.6893333,18.3111111 21.6893333,14.8897778 C21.6893333,14.6177778 21.6617778,14.3497778 21.608,14.0866667 C21.5790055,14.0263425 21.5639669,13.9602637 21.564,13.8933333 C21.2666667,12.7257778 20.4555556,11.6657778 19.284,10.8115556 C19.2094486,10.7844882 19.1435792,10.7378115 19.0933333,10.6764444 C17.3124444,9.452 14.768,8.68444444 11.9462222,8.68444444 C9.15288889,8.68444444 6.63022222,9.43688889 4.852,10.6404444 C4.80348984,10.695577 4.74233551,10.7381258 4.67377778,10.7644444 C3.47688889,11.6191111 2.64488889,12.6862222 2.336,13.864 C2.33506408,13.9228096 2.32237048,13.9808375 2.29866667,14.0346667 C2.29644444,14.0395556 2.29466667,14.0444444 2.292,14.0488889 Z M20.1128889,10.3515556 C21.1435556,11.176 21.9,12.1577778 22.2866667,13.2351111 C22.7382218,12.894656 23.0026269,12.3610685 23,11.7955556 C22.99902,10.7991492 22.1915175,9.99164666 21.1951111,9.99066667 C20.8047308,9.99011873 20.4248066,10.1168121 20.1128889,10.3515556 L20.1128889,10.3515556 Z M2.79511111,9.99066667 C1.79887828,9.99189156 0.991646217,10.7993225 0.990666667,11.7955556 C0.990666667,12.3346667 1.23066667,12.8355556 1.62888889,13.1733333 C2.02844444,12.1044444 2.79244444,11.1306667 3.82711111,10.3142222 C3.52420826,10.1035458 3.16407545,9.99063595 2.79511111,9.99066667 L2.79511111,9.99066667 Z M20.0666667,2.93511111 C19.3342222,2.93511111 18.7377778,3.53155556 18.7377778,4.26444444 C18.7377778,4.99733333 19.3342222,5.59333333 20.0666667,5.59333333 C20.7991111,5.59333333 21.3955556,4.99733333 21.3955556,4.26444444 C21.3955556,3.53155556 20.7995556,2.93511111 20.0666667,2.93511111 L20.0666667,2.93511111 Z M11.9946667,19.4537778 C10.2146667,19.4537778 8.96044444,19.0648889 8.16088889,18.2648889 C7.98734875,18.091226 7.98744825,17.8097624 8.16111112,17.6362222 C8.33477399,17.4626821 8.61623764,17.4627816 8.78977778,17.6364444 C9.41422222,18.2608889 10.4622222,18.5648889 11.9946667,18.5648889 C13.5266667,18.5648889 14.5755556,18.2608889 15.2008889,17.6364444 C15.3131497,17.524263 15.476731,17.4804936 15.6300133,17.5216236 C15.7832956,17.5627536 15.9029918,17.6825344 15.9440133,17.8358458 C15.9850349,17.9891572 15.9411497,18.1527075 15.8288889,18.2648889 C15.0284444,19.0648889 13.7746667,19.4537778 11.9946667,19.4537778 L11.9946667,19.4537778 Z" id="Shape"></path>
            <path d="M15.5986667,11.9333333 C14.6928889,11.9333333 13.9324444,12.692 13.9324444,13.5977778 C13.9324444,14.5031111 14.6928889,15.2368889 15.5986667,15.2368889 C16.5044444,15.2368889 17.2377778,14.5031111 17.2377778,13.5977778 C17.2377778,12.692 16.504,11.9333333 15.5986667,11.9333333 L15.5986667,11.9333333 Z M8.41733333,11.9333333 C7.51244444,11.9333333 6.75288889,12.6928889 6.75288889,13.5977778 C6.75288889,14.5026667 7.512,15.2368889 8.41733333,15.2368889 C9.32266667,15.2368889 10.0564444,14.5026667 10.0564444,13.5977778 C10.0564444,12.6928889 9.32222222,11.9333333 8.41733333,11.9333333 L8.41733333,11.9333333 Z" id="Shape"></path>
        </g>
    </g>
</svg>