<?xml version="1.0" encoding="UTF-8"?>
<svg width="24px" height="24px" viewBox="0 0 24 24" version="1.1" xmlns="http://www.w3.org/2000/svg" xmlns:xlink="http://www.w3.org/1999/xlink">
    <!-- Generator: Sketch 46.2 (44496) - http://www.bohemiancoding.com/sketch -->
    <title>social-github</title>
    <desc>Created with Sketch.</desc>
    <defs></defs>
    <g id="Page-1" stroke="none" stroke-width="1" fill="none" fill-rule="evenodd">
        <g id="social-github" fill="#FFFFFF">
            <path d="M12,1 C5.92529297,1 1,5.92529297 1,12 C1,16.8608398 4.1515,20.9831543 8.52288281,22.4373672 C9.07275391,22.5380859 9.27350391,22.1983535 9.27350391,21.9083145 C9.27350391,21.6464629 9.26342773,20.7790527 9.25805664,19.8605957 C6.19921875,20.5252578 5.55266797,18.5634766 5.55266797,18.5634766 C5.05182422,17.2932129 4.33141016,16.954834 4.33141016,16.954834 C3.3317207,16.2727051 4.40725,16.2861328 4.40725,16.2861328 C5.51167578,16.3626602 6.09312891,17.4194336 6.09312891,17.4194336 C7.07470703,19.1005859 8.66856836,18.614502 9.29430078,18.3325195 C9.39428906,17.6235352 9.67895703,17.1374512 9.99254297,16.8635254 C7.55071484,16.585582 4.982,15.6416016 4.982,11.426625 C4.982,10.224832 5.41102148,9.24462891 6.11328125,8.47454297 C6.0011543,8.19524609 5.62249219,7.07603906 6.22203516,5.56207813 C6.22203516,5.56207813 7.14453125,5.26666797 9.24729297,6.69000781 C10.1241133,6.44495703 11.0647422,6.32410742 11.9999785,6.32006836 C12.9345488,6.32410742 13.8758223,6.44628906 14.7540176,6.69133984 C16.8527832,5.26666797 17.7766113,5.56341016 17.7766113,5.56341016 C18.3781738,7.07872461 17.9995117,8.19657813 17.8867188,8.47454297 C18.5916641,9.24462891 19.017334,10.2248535 19.017334,11.426625 C19.017334,15.6523438 16.4445801,16.582875 13.9940293,16.8554688 C14.3901582,17.1965332 14.7406113,17.8652344 14.7406113,18.8911133 C14.7406113,20.3614609 14.7258301,21.5471191 14.7258301,21.909668 C14.7258301,22.2023926 14.9258926,22.5447891 15.4831543,22.4373672 C19.851207,20.9804688 23,16.8581543 23,12 C23,5.92529297 18.074707,1 12,1 Z" id="Shape"></path>
        </g>
    </g>
</svg>