<?xml version="1.0" encoding="UTF-8"?>
<svg width="24px" height="24px" viewBox="0 0 24 24" version="1.1" xmlns="http://www.w3.org/2000/svg" xmlns:xlink="http://www.w3.org/1999/xlink">
    <!-- Generator: Sketch 46.2 (44496) - http://www.bohemiancoding.com/sketch -->
    <title>social-medium</title>
    <desc>Created with Sketch.</desc>
    <defs></defs>
    <g id="Page-1" stroke="none" stroke-width="1" fill="none" fill-rule="evenodd">
        <g id="social-medium" fill-rule="nonzero" fill="#FFFFFF">
            <path d="M2,2 L22,2 L22,22 L2,22 L2,2 Z M6.77272618,8.68879543 L6.77272618,14.627263 C6.80927013,14.8414856 6.7417397,15.0603155 6.59082094,15.2167202 L5.17948718,16.9286544 L5.17948718,17.1544039 L9.18140247,17.1544039 L9.18140247,16.9286544 L7.77006871,15.2167202 C7.61804307,15.0605744 7.54633106,14.8431866 7.57561828,14.627263 L7.57561828,9.49146053 L11.0882712,17.1544039 L11.4959898,17.1544039 L14.5131078,9.49146053 L14.5131078,15.5992403 C14.5131078,15.7622816 14.5131078,15.7936357 14.4064737,15.9002397 L13.3213149,16.9537376 L13.3213149,17.1794872 L18.5902943,17.1794872 L18.5902943,16.9537376 L17.542771,15.925323 C17.4502999,15.8548361 17.4044295,15.7389861 17.4235917,15.6243236 L17.4235917,8.06798414 C17.4044295,7.95332166 17.4502999,7.83747156 17.542771,7.76698473 L18.6153846,6.73857007 L18.6153846,6.51282051 L14.9020087,6.51282051 L12.2549738,13.1159951 L9.24412842,6.51282051 L5.34884723,6.51282051 L5.34884723,6.73857007 L6.60336613,8.24983795 C6.72652308,8.36084421 6.78941926,8.52386228 6.77272618,8.68879543 Z" id="Combined-Shape"></path>
        </g>
    </g>
</svg>