<?xml version="1.0" encoding="UTF-8"?>
<svg width="24px" height="24px" viewBox="0 0 24 24" version="1.1" xmlns="http://www.w3.org/2000/svg" xmlns:xlink="http://www.w3.org/1999/xlink">
    <!-- Generator: Sketch 46.2 (44496) - http://www.bohemiancoding.com/sketch -->
    <title>social-email</title>
    <desc>Created with Sketch.</desc>
    <defs></defs>
    <g id="Page-1" stroke="none" stroke-width="1" fill="none" fill-rule="evenodd">
        <g id="social-email">
            <path d="M2,7.00947762 L2,16.9905224 C2,17.5567176 2.44166462,18 2.99109042,18 L21.0089096,18 C21.5520814,18 22,17.5495998 22,16.9905224 L22,7.00947762 C22,6.44328241 21.5583354,6 21.0089096,6 L2.99109042,6 C2.44791857,6 2,6.4504002 2,7.00947762 Z M0,7.00947762 C0,5.34738902 1.34177063,4 2.99109042,4 L21.0089096,4 C22.6608432,4 24,5.33663106 24,7.00947762 L24,16.9905224 C24,18.652611 22.6582294,20 21.0089096,20 L2.99109042,20 C1.33915679,20 0,18.6633689 0,16.9905224 L0,7.00947762 Z" id="Rectangle-3" fill="#FFFFFF" fill-rule="nonzero"></path>
            <polyline id="Path-2" stroke="#FFFFFF" stroke-width="2" stroke-linecap="round" stroke-linejoin="round" points="2 6 12 14 22 6"></polyline>
        </g>
    </g>
</svg>